<?xml version="1.0" standalone="no"?><!DOCTYPE svg PUBLIC "-//W3C//DTD SVG 1.1//EN" "http://www.w3.org/Graphics/SVG/1.1/DTD/svg11.dtd"><svg t="1657531881751" class="icon" viewBox="0 0 1024 1024" version="1.1" xmlns="http://www.w3.org/2000/svg" p-id="4201" xmlns:xlink="http://www.w3.org/1999/xlink" width="64" height="64"><defs><style type="text/css"></style></defs><path d="M768.180706 342.437647c-24.094118-9.517176-196.969412-72.764235-265.577412-97.701647-142.516706-52.404706-307.139765-131.011765-332.498823-142.697412a12.167529 12.167529 0 0 0-12.830118 1.686588 11.444706 11.444706 0 0 0-4.577882 7.469177c-9.155765 55.777882 11.625412 152.214588 62.343529 187.572706 30.72 21.684706 233.110588 87.762824 315.813647 113.965176 2.529882 0.843294 1.204706 4.216471-0.843294 3.734589C443.994353 396.950588 217.931294 344.545882 213.353412 344.124235c-4.577882-0.421647-7.890824 0.421647-11.203765 3.734589a12.649412 12.649412 0 0 0-3.312941 10.842352C210.040471 421.044706 269.071059 501.76 320.572235 512.120471c30.358588 6.264471 155.828706 2.951529 207.811765 1.686588 2.469647 0 2.891294 3.312941 0.421647 3.734588-58.608941 8.312471-201.185882 29.936941-204.920471 30.780235a11.565176 11.565176 0 0 0-8.734117 6.625883 12.528941 12.528941 0 0 0 0 11.685647c8.734118 18.311529 34.093176 42.827294 34.093176 42.827294 55.717647 56.982588 116.374588 50.356706 131.734589 47.405176a383.096471 383.096471 0 0 0 69.391058-22.889411c1.686588-0.783059 2.951529 0.843294 2.529883 2.108235l-32.406589 116.434823c-0.421647 1.264941 0.421647 2.529882 1.626353 2.529883l96.858353 0.843294c1.204706 0 2.048 1.204706 1.626353 2.409412l-56.500706 183.476706c-0.843294 2.048 2.108235 3.312941 3.312942 1.626352l212.389647-269.854117c0.843294-1.264941 0-2.951529-1.686589-2.95153h-100.954353c-1.686588 0-2.529882-1.626353-1.686588-2.891294 13.733647-22.467765 102.640941-169.682824 131.312941-226.665411 9.155765-16.263529 12.890353-39.514353 6.625883-56.982589-5.782588-17.468235-19.456-31.201882-45.236706-41.562353z" fill="#1296db" p-id="4202"></path></svg>